<svg width="66" height="55" viewBox="0 0 66 55" fill="none" xmlns="http://www.w3.org/2000/svg">
<path d="M0 18L30 35.3205V0.679491L0 18ZM65.625 15L27 15V21L65.625 21V15Z" fill="black"/>
<path d="M18.6485 46H12.7525V45.67H13.1265C13.3465 45.67 13.4895 45.6297 13.5555 45.549C13.6215 45.4683 13.6545 45.3473 13.6545 45.186V39.114C13.6545 38.9527 13.6215 38.8317 13.5555 38.751C13.4895 38.6703 13.3465 38.63 13.1265 38.63H12.7525V38.3H15.5465V38.63H15.1285C14.9085 38.63 14.7655 38.6703 14.6995 38.751C14.6335 38.8317 14.6005 38.9527 14.6005 39.114V45.032C14.6005 45.1933 14.6335 45.318 14.6995 45.406C14.7655 45.494 14.9085 45.538 15.1285 45.538H17.2185C17.6072 45.538 17.9482 45.4133 18.2415 45.164C18.5422 44.9073 18.6925 44.658 18.6925 44.416L19.0225 44.482L18.6485 46ZM21.7508 46.154C21.1054 46.154 20.5664 45.912 20.1338 45.428C19.7011 44.944 19.4848 44.3793 19.4848 43.734C19.4848 42.9127 19.7928 42.205 20.4088 41.611C21.0321 41.017 21.6884 40.72 22.3778 40.72C23.0671 40.72 23.6208 40.9657 24.0388 41.457C24.4641 41.941 24.6768 42.502 24.6768 43.14C24.6768 43.9393 24.3798 44.6433 23.7858 45.252C23.1991 45.8533 22.5208 46.154 21.7508 46.154ZM20.2548 43.14C20.2548 43.822 20.4601 44.3903 20.8708 44.845C21.2888 45.2923 21.7544 45.516 22.2678 45.516C22.7884 45.516 23.1954 45.3217 23.4888 44.933C23.7821 44.5443 23.9288 44.1447 23.9288 43.734C23.9288 43.1107 23.7344 42.568 23.3458 42.106C22.9644 41.6367 22.4988 41.402 21.9488 41.402C21.3988 41.402 20.9771 41.589 20.6838 41.963C20.3978 42.3297 20.2548 42.722 20.2548 43.14ZM26.9586 45.428L28.0586 45.384C28.8946 45.384 29.4739 45.4757 29.7966 45.659C30.1192 45.835 30.2806 46.121 30.2806 46.517C30.2806 46.913 30.1669 47.2577 29.9396 47.551C29.7122 47.8443 29.4152 48.0753 29.0486 48.244C28.3226 48.5667 27.5452 48.728 26.7166 48.728C26.2326 48.728 25.8402 48.6107 25.5396 48.376C25.2389 48.1487 25.0886 47.8627 25.0886 47.518C25.0886 46.7113 25.4332 46.1907 26.1226 45.956C25.9539 45.956 25.8146 45.9193 25.7046 45.846C25.6019 45.7727 25.5506 45.692 25.5506 45.604C25.5506 45.5087 25.5652 45.417 25.5946 45.329C25.6239 45.241 25.6716 45.153 25.7376 45.065C25.8036 44.9697 25.8586 44.8963 25.9026 44.845C25.9539 44.7863 26.0346 44.702 26.1446 44.592L26.3646 44.372C25.9686 44.02 25.7706 43.5433 25.7706 42.942C25.7706 42.3333 25.9979 41.809 26.4526 41.369C26.9072 40.9217 27.4059 40.698 27.9486 40.698C28.2859 40.698 28.5866 40.7933 28.8506 40.984C29.1586 40.632 29.6719 40.456 30.3906 40.456L30.2806 41.402C30.2366 41.336 30.1596 41.2737 30.0496 41.215C29.9396 41.149 29.8552 41.116 29.7966 41.116C29.5986 41.116 29.3932 41.182 29.1806 41.314C29.4592 41.6367 29.5986 42.0253 29.5986 42.48C29.5986 43.052 29.3786 43.5617 28.9386 44.009C28.4986 44.4563 27.9999 44.68 27.4426 44.68C27.1566 44.68 26.9219 44.6287 26.7386 44.526C26.4306 44.8927 26.2766 45.12 26.2766 45.208C26.2766 45.3547 26.5039 45.428 26.9586 45.428ZM27.5086 45.978H26.7386C26.5112 46.1173 26.3609 46.2237 26.2876 46.297C26.2142 46.3703 26.1519 46.44 26.1006 46.506C26.0492 46.572 26.0052 46.638 25.9686 46.704C25.8952 46.858 25.8586 47.0303 25.8586 47.221C25.8586 47.4117 25.9466 47.5767 26.1226 47.716C26.4232 47.936 26.8412 48.046 27.3766 48.046C27.9192 48.046 28.4216 47.9543 28.8836 47.771C29.3456 47.5877 29.5766 47.3347 29.5766 47.012C29.5766 46.6893 29.3896 46.4363 29.0156 46.253C28.6416 46.0697 28.1392 45.978 27.5086 45.978ZM26.4746 42.557C26.4746 42.9457 26.6102 43.2903 26.8816 43.591C27.1602 43.8917 27.4719 44.042 27.8166 44.042C28.1612 44.042 28.4252 43.9357 28.6086 43.723C28.7992 43.503 28.8946 43.2133 28.8946 42.854C28.8946 42.4873 28.7589 42.1427 28.4876 41.82C28.2236 41.4973 27.9119 41.336 27.5526 41.336C27.1932 41.336 26.9219 41.4423 26.7386 41.655C26.5626 41.8603 26.4746 42.161 26.4746 42.557ZM36.8821 46.22C35.9215 46.22 35.1185 45.8497 34.4731 45.109C33.8351 44.3683 33.5161 43.514 33.5161 42.546C33.5161 41.9447 33.6481 41.3653 33.9121 40.808C34.1761 40.2507 34.5135 39.7777 34.9241 39.389C35.3421 39.0003 35.8005 38.6887 36.2991 38.454C36.8051 38.2193 37.2928 38.102 37.7621 38.102C38.7155 38.102 39.5148 38.4723 40.1601 39.213C40.8055 39.9537 41.1281 40.808 41.1281 41.776C41.1281 42.4947 40.9338 43.1987 40.5451 43.888C40.1565 44.57 39.6285 45.131 38.9611 45.571C38.3011 46.0037 37.6081 46.22 36.8821 46.22ZM37.5641 45.384C38.3635 45.384 39.0345 45.0907 39.5771 44.504C40.1271 43.9173 40.4021 43.1913 40.4021 42.326C40.4021 41.4607 40.0831 40.6833 39.4451 39.994C38.8145 39.3047 38.0481 38.96 37.1461 38.96C36.3761 38.96 35.6978 39.2387 35.1111 39.796C34.5318 40.346 34.2421 41.006 34.2421 41.776C34.2421 42.7733 34.5465 43.624 35.1551 44.328C35.7711 45.032 36.5741 45.384 37.5641 45.384ZM47.4165 46H45.8325V44.702C45.6638 45.164 45.4035 45.5233 45.0515 45.78C44.6995 46.0293 44.2705 46.154 43.7645 46.154C43.5005 46.154 43.2768 46.0953 43.0935 45.978C42.9102 45.8607 42.7782 45.7103 42.6975 45.527C42.5582 45.2117 42.4885 44.9 42.4885 44.592V41.974C42.4885 41.6367 42.2758 41.468 41.8505 41.468V41.16C41.9972 41.16 42.2172 41.1197 42.5105 41.039C42.8112 40.9583 43.0312 40.874 43.1705 40.786L43.3685 40.764V44.394C43.3685 44.724 43.4455 44.977 43.5995 45.153C43.7608 45.3217 43.9845 45.406 44.2705 45.406C44.6812 45.406 45.0442 45.186 45.3595 44.746C45.6748 44.306 45.8325 43.976 45.8325 43.756V41.974C45.8325 41.6367 45.6198 41.468 45.1945 41.468V41.16C45.3558 41.16 45.5832 41.1197 45.8765 41.039C46.1772 40.9583 46.3972 40.874 46.5365 40.786L46.7345 40.764V45.252C46.7345 45.3547 46.7418 45.4317 46.7565 45.483C46.7932 45.6223 46.9472 45.692 47.2185 45.692H47.4165V46ZM51.3799 45.318L51.4679 45.582C50.9179 45.9633 50.3166 46.154 49.6639 46.154C49.4293 46.154 49.2276 46.0697 49.0589 45.901C48.8903 45.7323 48.8059 45.5087 48.8059 45.23V41.336H48.1679V40.874H48.4099C48.6519 40.874 48.8756 40.7273 49.0809 40.434C49.2936 40.1407 49.3999 39.8693 49.3999 39.62H49.6859V40.874H51.1819V41.336H50.1039C49.8253 41.336 49.6859 41.468 49.6859 41.732V44.878C49.6859 45.362 49.8619 45.604 50.2139 45.604C50.6099 45.604 50.9986 45.5087 51.3799 45.318Z" fill="black"/>
</svg>
