<svg width="100" height="100" viewBox="0 0 90 100" fill="none" xmlns="http://www.w3.org/2000/svg">
<path d="M81.4074 3H64.2933L66.437 23C66.437 23 70.7244 27 77.1555 27C81.7731 27 84.917 24.9378 86.3233 23.7748C86.8837 23.3113 87.0886 22.6036 86.9656 21.9144L83.9446 5.00544C83.738 3.8482 82.6649 3 81.4074 3Z" stroke="black" stroke-width="5.50319"/>
<path d="M64.2933 3L66.437 23C66.437 23 62.1496 27 55.7185 27C49.2874 27 45 23 45 23V3H64.2933Z" stroke="black" stroke-width="5.50319"/>
<path d="M45 3V23C45 23 40.7126 27 34.2814 27C27.8503 27 23.5629 23 23.5629 23L25.7066 3H45Z" stroke="black" stroke-width="5.50319"/>
<path d="M25.7067 3H8.59255C7.33506 3 6.26188 3.8482 6.05514 5.00544L3.03445 21.9145C2.91136 22.6036 3.11643 23.3113 3.67679 23.7748C5.08272 24.9378 8.22675 27 12.8444 27C19.2755 27 23.563 23 23.563 23L25.7067 3Z" stroke="black" stroke-width="5.50319"/>
<path d="M6.44208 27V67C6.44208 71.4184 10.2811 75 15.0169 75H75.0405C79.7764 75 83.6153 71.4184 83.6153 67V27" stroke="black" stroke-width="5.50319"/>
<path d="M57.1762 75V51C57.1762 46.5816 53.3373 43 48.6014 43H40.0266C35.2909 43 31.4518 46.5816 31.4518 51V75" stroke="black" stroke-width="5.50319" stroke-miterlimit="16"/>
<path d="M49.6666 59.256V62.52C49.6666 65.7012 47.1594 68.28 44.0666 68.28H42.2C39.1072 68.28 36.6 65.7012 36.6 62.52V59.256C36.6 58.9379 36.8507 58.68 37.16 58.68H49.1066C49.4159 58.68 49.6666 58.9379 49.6666 59.256Z" stroke="black" stroke-width="2" stroke-linecap="round" stroke-linejoin="round"/>
<path d="M45 56.76C45 55.8 45.6667 54.84 47 54.84C48.4727 54.84 49.6667 53.612 49.6667 52.0972V51.48" stroke="black" stroke-width="2" stroke-linecap="round" stroke-linejoin="round"/>
<path d="M41.2667 56.76V56.28C41.2667 54.6895 42.5203 53.4 44.0667 53.4C45.0976 53.4 45.9333 52.5404 45.9333 51.48V51" stroke="black" stroke-width="2" stroke-linecap="round" stroke-linejoin="round"/>
<path d="M48.7333 58.68H51.0666C52.3553 58.68 53.3999 59.7546 53.3999 61.08C53.3999 62.4055 52.3553 63.48 51.0666 63.48H49.6666" stroke="black" stroke-width="2" stroke-linecap="round" stroke-linejoin="round"/>
</svg>
